<svg width="24" height="24" viewBox="0 0 24 24" fill="none" xmlns="http://www.w3.org/2000/svg">
<mask id="mask0_5359_11296" style="mask-type:alpha" maskUnits="userSpaceOnUse" x="0" y="0" width="24" height="24">
<rect width="24" height="24" fill="#D9D9D9"/>
</mask>
<g mask="url(#mask0_5359_11296)">
<path d="M9.5216 15.6135C7.81392 15.6135 6.36777 15.0212 5.18317 13.8366C3.99856 12.652 3.40625 11.2058 3.40625 9.49816C3.40625 7.79048 3.99856 6.34433 5.18317 5.15971C6.36777 3.97511 7.81392 3.38281 9.5216 3.38281C11.2293 3.38281 12.6754 3.97511 13.8601 5.15971C15.0447 6.34433 15.637 7.79048 15.637 9.49816C15.637 10.2123 15.5171 10.8943 15.2774 11.5443C15.0376 12.1943 14.7177 12.7597 14.3177 13.2405L20.0716 18.9943C20.2101 19.1328 20.2809 19.3068 20.2841 19.5164C20.2873 19.726 20.2165 19.9033 20.0716 20.0481C19.9267 20.193 19.7511 20.2654 19.5447 20.2654C19.3383 20.2654 19.1626 20.193 19.0178 20.0481L13.2639 14.2943C12.7639 14.7071 12.1889 15.0302 11.5389 15.2635C10.8889 15.4968 10.2165 15.6135 9.5216 15.6135ZM9.5216 14.1136C10.8101 14.1136 11.9014 13.6664 12.7956 12.7722C13.6899 11.878 14.137 10.7866 14.137 9.49816C14.137 8.2097 13.6899 7.11835 12.7956 6.22411C11.9014 5.32988 10.8101 4.88276 9.5216 4.88276C8.23313 4.88276 7.14178 5.32988 6.24755 6.22411C5.35333 7.11835 4.90623 8.2097 4.90623 9.49816C4.90623 10.7866 5.35333 11.878 6.24755 12.7722C7.14178 13.6664 8.23313 14.1136 9.5216 14.1136Z" fill="#35353A"/>
</g>
</svg>
