<svg width="17" height="16" viewBox="0 0 17 16" fill="none" xmlns="http://www.w3.org/2000/svg">
<path d="M2.5 4H3.83333H14.5" stroke="#8E8E93" stroke-width="2" stroke-linecap="round" stroke-linejoin="round"/>
<path d="M5.83594 4.0026V2.66927C5.83594 2.31565 5.97641 1.97651 6.22646 1.72646C6.47651 1.47641 6.81565 1.33594 7.16927 1.33594H9.83594C10.1896 1.33594 10.5287 1.47641 10.7787 1.72646C11.0288 1.97651 11.1693 2.31565 11.1693 2.66927V4.0026M13.1693 4.0026V13.3359C13.1693 13.6896 13.0288 14.0287 12.7787 14.2787C12.5287 14.5288 12.1896 14.6693 11.8359 14.6693H5.16927C4.81565 14.6693 4.47651 14.5288 4.22646 14.2787C3.97641 14.0287 3.83594 13.6896 3.83594 13.3359V4.0026H13.1693Z" stroke="#8E8E93" stroke-width="2" stroke-linecap="round" stroke-linejoin="round"/>
<path d="M7.16406 7.33594V11.3359" stroke="#8E8E93" stroke-width="2" stroke-linecap="round" stroke-linejoin="round"/>
<path d="M9.83594 7.33594V11.3359" stroke="#8E8E93" stroke-width="2" stroke-linecap="round" stroke-linejoin="round"/>
</svg>
