<svg width="47" height="48" viewBox="0 0 47 48" fill="none" xmlns="http://www.w3.org/2000/svg">
<path d="M31.1693 31.7018L23.5026 24L15.8359 31.7018" stroke="#3D3D3D" stroke-opacity="0.5" stroke-width="2" stroke-linecap="round" stroke-linejoin="round"/>
<path d="M23.5 24V41.3291" stroke="#3D3D3D" stroke-opacity="0.5" stroke-width="2" stroke-linecap="round" stroke-linejoin="round"/>
<path d="M39.5806 36.3C41.45 35.2761 42.9268 33.6561 43.7779 31.6955C44.629 29.7348 44.8059 27.5453 44.2807 25.4725C43.7555 23.3997 42.5582 21.5616 40.8776 20.2483C39.197 18.935 37.129 18.2213 34.9998 18.2199H32.5848C32.0047 15.9656 30.9234 13.8729 29.4222 12.0988C27.921 10.3248 26.0391 8.91579 23.9178 7.97762C21.7966 7.03946 19.4912 6.59659 17.175 6.68232C14.8589 6.76805 12.5922 7.38014 10.5454 8.47258C8.4986 9.56502 6.72497 11.1094 5.35783 12.9895C3.99069 14.8697 3.06562 17.0368 2.65218 19.3278C2.23874 21.6188 2.34767 23.9742 2.97079 26.2168C3.59392 28.4595 4.71502 30.531 6.2498 32.2757" stroke="#3D3D3D" stroke-opacity="0.5" stroke-width="2" stroke-linecap="round" stroke-linejoin="round"/>
<path d="M31.1693 31.7018L23.5026 24L15.8359 31.7018" stroke="#3D3D3D" stroke-opacity="0.5" stroke-width="2" stroke-linecap="round" stroke-linejoin="round"/>
</svg>
