<svg width="24" height="23" viewBox="0 0 24 23" fill="none" xmlns="http://www.w3.org/2000/svg">
<path d="M9.83381 3.15853C9.97604 2.807 10.22 2.50595 10.5344 2.29397C10.8489 2.082 11.2194 1.96875 11.5987 1.96875C11.9779 1.96875 12.3485 2.082 12.6629 2.29397C12.9773 2.50595 13.2213 2.807 13.3635 3.15853C14.7712 3.54566 16.0128 4.38418 16.8978 5.54531C17.7827 6.70644 18.262 8.12597 18.2621 9.58589V14.0571L20.006 16.6729C20.1017 16.8163 20.1566 16.9829 20.165 17.1551C20.1733 17.3272 20.1348 17.4984 20.0535 17.6503C19.9722 17.8023 19.8512 17.9293 19.7033 18.0179C19.5555 18.1064 19.3864 18.1532 19.214 18.1532H14.8971C14.7825 18.9462 14.3859 19.6714 13.7802 20.1959C13.1744 20.7204 12.4 21.0091 11.5987 21.0091C10.7974 21.0091 10.0229 20.7204 9.41715 20.1959C8.81139 19.6714 8.41488 18.9462 8.30027 18.1532H3.98331C3.81097 18.1532 3.64186 18.1064 3.49402 18.0179C3.34617 17.9293 3.22514 17.8023 3.14384 17.6503C3.06254 17.4984 3.02401 17.3272 3.03237 17.1551C3.04073 16.9829 3.09567 16.8163 3.19131 16.6729L4.93523 14.0571V9.58589C4.93523 6.5169 7.01041 3.93149 9.83381 3.15853ZM10.2527 18.1532C10.351 18.4317 10.5333 18.673 10.7744 18.8436C11.0156 19.0142 11.3037 19.1059 11.5991 19.1059C11.8946 19.1059 12.1827 19.0142 12.4239 18.8436C12.665 18.673 12.8473 18.4317 12.9456 18.1532H10.2517H10.2527ZM11.5987 4.82629C10.3363 4.82629 9.12572 5.32775 8.23312 6.22035C7.34053 7.11295 6.83907 8.32357 6.83907 9.58589V14.3455C6.83911 14.5335 6.78346 14.7174 6.67915 14.8738L5.76245 16.2493H17.4339L16.5172 14.8738C16.4133 14.7173 16.3579 14.5334 16.3583 14.3455V9.58589C16.3583 8.32357 15.8568 7.11295 14.9642 6.22035C14.0716 5.32775 12.861 4.82629 11.5987 4.82629Z" fill="white"/>
</svg>
