<svg width="25" height="24" viewBox="0 0 25 24" fill="none" xmlns="http://www.w3.org/2000/svg">
<g clip-path="url(#clip0_5359_12359)">
<path d="M9.89815 8.91463C9.65562 8.91452 9.43132 9.04387 9.3099 9.25403C9.18858 9.46408 9.18847 9.7229 9.30968 9.93306C9.431 10.1433 9.65508 10.2729 9.89772 10.2729L14.3115 10.2734C14.5542 10.2734 14.7785 10.1438 14.8999 9.93369C15.0212 9.72342 15.0212 9.46449 14.8998 9.25432C14.7785 9.04405 14.5543 8.9146 14.3114 8.91459L9.89761 8.91511L9.89815 8.91463Z" fill="white"/>
<path fill-rule="evenodd" clip-rule="evenodd" d="M5.1105 18.1105C4.93035 18.1104 4.75769 18.0389 4.63037 17.9116C4.50306 17.7843 4.43158 17.6117 4.43158 17.4316L4.43105 14.7145C4.43116 14.5346 4.50265 14.3619 4.62996 14.2346C4.75728 14.1073 4.92993 14.0358 5.10987 14.0357C5.65988 14.0511 6.19251 13.8435 6.58701 13.4601C6.9814 13.0766 7.20399 12.5501 7.20409 12C7.2042 11.4499 6.98181 10.9232 6.58764 10.5395C6.19335 10.1559 5.66082 9.94812 5.11094 9.96323C4.93068 9.96345 4.75792 9.89185 4.63049 9.76442C4.50307 9.637 4.43137 9.46413 4.43158 9.28387L4.43213 6.56784C4.43213 6.3878 4.50361 6.21514 4.63092 6.08783C4.75824 5.96051 4.9309 5.88903 5.11094 5.88903L20.0486 5.88903L20.0485 5.88892C20.5888 5.88892 21.107 6.10358 21.4891 6.48565C21.8711 6.86772 22.0858 7.38587 22.0857 7.92613V9.28398C22.0857 9.46402 22.0141 9.63657 21.8868 9.76389C21.7595 9.8912 21.5869 9.96279 21.4069 9.96279C20.751 9.96279 20.0486 10.621 20.0491 11.6605C20.0491 12.6994 20.7516 13.3577 21.4069 13.3582L21.4068 13.3583C21.5948 13.3582 21.7745 13.436 21.9029 13.5732C22.0314 13.7105 22.0973 13.8947 22.0847 14.0824C22.0855 14.097 22.0858 14.1117 22.0857 14.1264L22.0857 16.0739C22.0856 16.6139 21.871 17.132 21.4891 17.5139C21.1071 17.8959 20.5892 18.1104 20.049 18.1106L16.7745 18.1106L16.7702 18.111L16.7664 18.111L5.1105 18.1105ZM20.0481 16.7525L17.4493 16.752L17.4493 7.24556L20.0487 7.24655H20.0485C20.2285 7.24655 20.4013 7.31814 20.5286 7.44546C20.6558 7.57267 20.7274 7.74542 20.7274 7.92547L20.7274 8.69751C19.5026 9.04463 18.6903 10.3102 18.6902 11.6594C18.6907 13.009 19.5031 14.2747 20.7269 14.6218L20.7274 16.0732L20.7275 16.0731C20.7275 16.2531 20.6558 16.4258 20.5285 16.5531C20.4012 16.6804 20.2287 16.752 20.0486 16.752L20.0481 16.7525ZM5.7897 7.24556L16.0913 7.24556L16.0913 16.752L5.7897 16.752L5.78918 15.3266L5.78928 15.3264C6.81919 15.1155 7.69349 14.4395 8.15669 13.4955C8.61989 12.5518 8.61989 11.4467 8.15669 10.5029C7.69338 9.55903 6.81929 8.883 5.78928 8.67199V7.24599L5.7897 7.24556Z" fill="white"/>
</g>
<defs>
<clipPath id="clip0_5359_12359">
<rect width="24" height="24" fill="white" transform="translate(0.859375)"/>
</clipPath>
</defs>
</svg>
