<svg width="24" height="25" viewBox="0 0 24 25" fill="none" xmlns="http://www.w3.org/2000/svg">
<g clip-path="url(#clip0_4198_13270)">
<path d="M12 2.5C10.0222 2.5 8.08879 3.08649 6.4443 4.1853C4.79981 5.28412 3.51809 6.8459 2.76121 8.67317C2.00433 10.5004 1.8063 12.5111 2.19215 14.4509C2.578 16.3907 3.53041 18.1725 4.92894 19.5711C6.32746 20.9696 8.10929 21.922 10.0491 22.3079C11.9889 22.6937 13.9996 22.4957 15.8268 21.7388C17.6541 20.9819 19.2159 19.7002 20.3147 18.0557C21.4135 16.4112 22 14.4778 22 12.5C22 11.1868 21.7413 9.88642 21.2388 8.67317C20.7363 7.45991 19.9997 6.35752 19.0711 5.42893C18.1425 4.50035 17.0401 3.76375 15.8268 3.2612C14.6136 2.75866 13.3132 2.5 12 2.5ZM16 13.5H12C11.7348 13.5 11.4804 13.3946 11.2929 13.2071C11.1054 13.0196 11 12.7652 11 12.5V8.5C11 8.23478 11.1054 7.98043 11.2929 7.79289C11.4804 7.60536 11.7348 7.5 12 7.5C12.2652 7.5 12.5196 7.60536 12.7071 7.79289C12.8946 7.98043 13 8.23478 13 8.5V11.5H16C16.2652 11.5 16.5196 11.6054 16.7071 11.7929C16.8946 11.9804 17 12.2348 17 12.5C17 12.7652 16.8946 13.0196 16.7071 13.2071C16.5196 13.3946 16.2652 13.5 16 13.5Z" fill="#3D3D3D" fill-opacity="0.6"/>
</g>
<defs>
<clipPath id="clip0_4198_13270">
<rect width="24" height="24" fill="white" transform="translate(0 0.5)"/>
</clipPath>
</defs>
</svg>
