<svg width="19" height="20" viewBox="0 0 19 20" fill="none" xmlns="http://www.w3.org/2000/svg">
<rect y="0.5" width="19" height="19" rx="9.5" fill="#3D3D3D" fill-opacity="0.6"/>
<g clip-path="url(#clip0_4198_13273)">
<path d="M10.8846 6.5625C11.4581 6.5625 11.9231 6.1008 11.9231 5.53125C11.9231 4.9617 11.4581 4.5 10.8846 4.5C10.3111 4.5 9.84615 4.9617 9.84615 5.53125C9.84615 6.1008 10.3111 6.5625 10.8846 6.5625ZM7.45964 11.3206L7.13945 12.0623H5.69231C5.31002 12.0623 5 12.3702 5 12.7498C5 13.1294 5.31002 13.4373 5.69231 13.4373H7.36791C7.78437 13.4373 8.1593 13.1915 8.32221 12.8123L8.51238 12.3714L8.28154 12.2361C7.90683 12.0163 7.6312 11.691 7.45964 11.3206ZM13.3077 9.31228H12.3551L11.7913 8.16824C11.5209 7.61932 11.0244 7.21799 10.4547 7.07383L8.91695 6.61965C8.30469 6.47355 7.66712 6.60783 7.168 6.98789L6.30976 7.64123C6.00623 7.87219 5.94868 8.30359 6.18168 8.60502C6.41469 8.90645 6.84889 8.96295 7.15221 8.73221L8.01089 8.07887C8.17683 7.95232 8.3882 7.90699 8.5576 7.94695L8.87563 8.04084L8.06519 9.91836C7.79216 10.5517 8.03685 11.2936 8.63418 11.6438L10.4727 12.7216L9.87839 14.6065C9.76416 14.9687 9.96731 15.3543 10.3321 15.4678C10.4011 15.4893 10.4707 15.4996 10.5393 15.4996C10.8338 15.4996 11.1068 15.3112 11.1996 15.0172L11.8841 12.846C12.012 12.3998 11.8216 11.9205 11.416 11.6775L10.0911 10.9011L10.7684 9.21926L11.207 10.1094C11.38 10.4604 11.7461 10.6871 12.1396 10.6871H13.3077C13.69 10.6871 14 10.3792 14 9.99957C14 9.61994 13.69 9.31228 13.3077 9.31228Z" fill="white"/>
</g>
<defs>
<clipPath id="clip0_4198_13273">
<rect width="9" height="11" fill="white" transform="translate(5 4.5)"/>
</clipPath>
</defs>
</svg>
